{
  "asset": {
    "generator": "Khronos glTF Blender I/O v1.7.33",
    "version": "2.0"
  },
  "scene": 0,
  "scenes": [
    {
      "name": "Scene",
      "nodes": [
        0
      ]
    }
  ],
  "nodes": [
    {
      "mesh": 0,
      "name": "sphere_gltf"
    }
  ],
  "materials": [
    {
      "doubleSided": true,
      "name": "stone_wall",
      "normalTexture": {
        "index": 0
      },
      "pbrMetallicRoughness": {
        "baseColorTexture": {
          "index": 1
        },
        "metallicFactor": 0,
        "metallicRoughnessTexture": {
          "index": 2
        }
      }
    }
  ],
  "meshes": [
    {
      "name": "Sphere.001",
      "primitives": [
        {
          "attributes": {
            "POSITION": 0,
            "NORMAL": 1,
            "TEXCOORD_0": 2
          },
          "indices": 3,
          "material": 0
        }
      ]
    }
  ],
  "textures": [
    {
      "sampler": 0,
      "source": 0
    },
    {
      "sampler": 0,
      "source": 1
    },
    {
      "sampler": 0,
      "source": 2
    }
  ],
  "images": [
    {
      "mimeType": "image/jpeg",
      "name": "stone_wall_nor_gl_8k",
      "uri": "textures/stone_wall_nor_gl_2k.jpg"
    },
    {
      "mimeType": "image/jpeg",
      "name": "stone_wall_diff_8k",
      "uri": "textures/stone_wall_diff_2k.jpg"
    },
    {
      "mimeType": "image/jpeg",
      "name": "stone_wall_rough_8k",
      "uri": "textures/stone_wall_rough_2k.jpg"
    }
  ],
  "accessors": [
    {
      "bufferView": 0,
      "componentType": 5126,
      "count": 53913,
      "max": [
        1.050453543663025,
        1.0583354234695435,
        1.043584942817688
      ],
      "min": [
        -1.0504539012908936,
        -1.0545315742492676,
        -1.043590784072876
      ],
      "type": "VEC3"
    },
    {
      "bufferView": 1,
      "componentType": 5126,
      "count": 53913,
      "type": "VEC3"
    },
    {
      "bufferView": 2,
      "componentType": 5126,
      "count": 53913,
      "type": "VEC2"
    },
    {
      "bufferView": 3,
      "componentType": 5123,
      "count": 322170,
      "type": "SCALAR"
    }
  ],
  "bufferViews": [
    {
      "buffer": 0,
      "byteLength": 646956,
      "byteOffset": 0
    },
    {
      "buffer": 0,
      "byteLength": 646956,
      "byteOffset": 646956
    },
    {
      "buffer": 0,
      "byteLength": 431304,
      "byteOffset": 1293912
    },
    {
      "buffer": 0,
      "byteLength": 644340,
      "byteOffset": 1725216
    }
  ],
  "samplers": [
    {
      "magFilter": 9729,
      "minFilter": 9987
    }
  ],
  "buffers": [
    {
      "byteLength": 2369556,
      "uri": "stone_wall.bin"
    }
  ]
}